<svg xmlns="http://www.w3.org/2000/svg" viewBox="0 0 300 300">
  <style>
    .book { fill: #0066cc; }
    .cap { fill: #00aa44; }
    .text { fill: #00aa44; }
    .text-blue { fill: #0066cc; }
    .symbols { fill: #0066cc; opacity: 0.7; }
  </style>
  <g>
    <!-- Book -->
    <path class="book" d="M50,200 C50,180 100,170 150,170 C200,170 250,180 250,200 L250,220 C250,240 200,250 150,250 C100,250 50,240 50,220 Z" />
    <path class="book" d="M50,200 C50,220 100,230 150,230 C200,230 250,220 250,200" stroke="#0066cc" stroke-width="2" fill="none" />
    
    <!-- Graduation Cap -->
    <path class="cap" d="M150,120 L80,150 L150,180 L220,150 Z" />
    <path class="cap" d="M150,180 L150,200 C150,210 170,220 190,220 L190,160" />
    
    <!-- Math and Science Symbols -->
    <g class="symbols">
      <text x="120" y="240" font-size="20">π</text>
      <text x="180" y="230" font-size="18">∞</text>
      <text x="100" y="220" font-size="22">Σ</text>
      <text x="200" y="240" font-size="16">∫</text>
      <text x="90" y="250" font-size="18">√</text>
      <text x="210" y="220" font-size="20">α</text>
      <text x="230" y="240" font-size="18">β</text>
      <text x="70" y="230" font-size="20">Δ</text>
      <text x="220" y="250" font-size="16">θ</text>
      <text x="240" y="230" font-size="20">Ω</text>
      <text x="130" y="250" font-size="22">∂</text>
      <text x="160" y="220" font-size="18">λ</text>
      <text x="190" y="250" font-size="20">μ</text>
      <text x="110" y="230" font-size="16">∇</text>
      <text x="80" y="240" font-size="18">±</text>
      <text x="140" y="230" font-size="20">÷</text>
      <text x="170" y="240" font-size="18">×</text>
      <text x="150" y="250" font-size="22">≈</text>
      <text x="120" y="220" font-size="16">≠</text>
      <text x="200" y="230" font-size="20">≤</text>
      <text x="230" y="220" font-size="18">≥</text>
      <text x="90" y="230" font-size="20">∈</text>
      <text x="210" y="240" font-size="16">∉</text>
      <text x="70" y="220" font-size="20">∩</text>
      <text x="240" y="250" font-size="18">∪</text>
      <text x="130" y="230" font-size="22">⊂</text>
      <text x="160" y="250" font-size="18">⊃</text>
      <text x="190" y="230" font-size="20">⊆</text>
      <text x="110" y="240" font-size="16">⊇</text>
      <text x="80" y="220" font-size="18">∀</text>
      <text x="140" y="240" font-size="20">∃</text>
      <text x="170" y="220" font-size="18">∄</text>
      <text x="150" y="230" font-size="22">∅</text>
      <text x="120" y="250" font-size="16">∴</text>
      <text x="200" y="220" font-size="20">∵</text>
      <text x="230" y="240" font-size="18">∼</text>
      <text x="90" y="220" font-size="20">≅</text>
      <text x="210" y="250" font-size="16">≡</text>
      <text x="70" y="240" font-size="20">≢</text>
    </g>
    
    <!-- Text -->
    <text x="150" y="290" font-family="Arial" font-size="40" font-weight="bold" text-anchor="middle">
      <tspan class=QuestionType.TEXT>Radiant</tspan> <tspan class="text-blue">Prep</tspan>
    </text>
  </g>
</svg>

